<?xml version="1.0" encoding="utf-8"?>
<svg viewBox="0 0 500 500" width="128px" height="128px" xmlns="http://www.w3.org/2000/svg" xmlns:bx="https://boxy-svg.com">
  <defs>
    <style bx:fonts="Carter One" bx:pinned="true">@import url(https://fonts.googleapis.com/css2?family=Carter+One%3Aital%2Cwght%400%2C400&amp;display=swap);</style>
  </defs>
  <path d="M 146.715 181.082 C 150.232 170.735 153.488 160.306 157.182 150.026 C 159.472 150.962 160.014 153.564 161.129 155.527 C 189.927 213.195 218.768 270.849 247.558 328.525 C 248.197 329.848 249.082 331.023 250.026 332.145 C 251.52 330.495 252.561 328.518 253.505 326.518 C 281.715 270.024 309.94 213.537 338.18 157.05 C 339.451 154.657 340.35 152.003 342.216 149.981 C 343.249 150.806 343.68 152.078 344.096 153.282 C 369.541 229.883 395.097 306.448 420.608 383.027 C 424.363 395.025 428.399 406.934 432.383 418.857 C 433.134 421.071 434.056 423.227 435 425.36 C 420.512 432.646 406.478 440.807 392.912 449.683 C 381.219 457.287 370.151 465.836 359.907 475.299 C 358.986 474.265 358.242 473.083 358.004 471.709 C 349.255 436.801 340.41 401.915 331.631 367.008 C 330.092 361.448 329.103 355.716 327.133 350.282 C 326.36 350.989 325.579 351.718 325.126 352.684 C 301.74 399.477 278.369 446.293 254.969 493.087 C 253.55 495.756 252.479 498.647 250.687 501.1 C 249.089 501.672 248.614 499.926 247.967 498.878 C 224.365 451.653 200.786 404.42 177.178 357.196 C 176.011 354.958 175.112 352.535 173.507 350.558 C 172.287 350.937 172.19 352.327 171.841 353.353 C 162.237 391.762 152.462 430.126 142.85 468.534 C 142.218 470.876 141.936 473.492 140.152 475.314 C 121.361 457.726 99.372 444.018 76.968 431.553 C 73.035 429.278 68.762 427.628 65 425.055 C 71.616 406.435 77.518 387.561 83.911 368.851 C 89.612 353.256 94.526 337.393 99.885 321.679 C 115.495 274.811 131.142 227.958 146.715 181.082 Z"/>
  <g transform="matrix(1.923565, 0, 0, 1.494879, -468.234222, -524.446411)" style="">
    <path d="M 297.643 350.916 L 449.13 350.916 C 479.078 350.916 503.354 373.425 503.354 401.193 L 503.354 428.498 C 503.354 456.266 479.078 478.775 449.13 478.775 L 297.643 478.775 C 267.696 478.775 243.42 456.266 243.42 428.498 L 243.42 401.193 C 243.42 373.425 267.696 350.916 297.643 350.916 Z" style="fill: rgb(252, 0, 0); stroke-width: 2px;"/>
    <text style="fill: rgb(255, 255, 255); font-family: &quot;Carter One&quot;; font-size: 15.5638px; font-weight: 700; letter-spacing: 1px; line-height: 24.9022px; text-transform: capitalize; white-space: pre;" transform="matrix(5.967362, 0, 0, 6.174528, -1792.768799, -2025.515381)" x="345.365" y="400.652">PRO</text>
  </g>
</svg>